HIERARCHY
ROOT Hips
{
	OFFSET 0.000000 0.000000 0.000000
	CHANNELS 6 Xposition Yposition Zposition Zrotation Yrotation Xrotation 
	JOINT LHipJoint
	{
		OFFSET 0.000000 0.000000 0.000000
		CHANNELS 3 Zrotation Yrotation Xrotation
		JOINT LeftUpLeg
		{
			OFFSET 1.363060 -1.794630 0.839290
			CHANNELS 3 Zrotation Yrotation Xrotation
			JOINT LeftLeg
			{
				OFFSET 2.448110 -6.726130 0.000000
				CHANNELS 3 Zrotation Yrotation Xrotation
				JOINT LeftFoot
				{
					OFFSET 2.562200 -7.039590 0.000000
					CHANNELS 3 Zrotation Yrotation Xrotation
					JOINT LeftToeBase
					{
						OFFSET 0.157640 -0.433110 2.322550
						CHANNELS 3 Zrotation Yrotation Xrotation
						End Site
						{
							OFFSET 0.000000 0.000000 0.000000
						}
					}
				}
			}
		}
	}
	JOINT RHipJoint
	{
		OFFSET 0.000000 0.000000 0.000000
		CHANNELS 3 Zrotation Yrotation Xrotation
		JOINT RightUpLeg
		{
			OFFSET -1.305520 -1.794630 0.839290
			CHANNELS 3 Zrotation Yrotation Xrotation
			JOINT RightLeg
			{
				OFFSET -2.542530 -6.985550 0.000000
				CHANNELS 3 Zrotation Yrotation Xrotation
				JOINT RightFoot
				{
					OFFSET -2.568260 -7.056230 0.000000
					CHANNELS 3 Zrotation Yrotation Xrotation
					JOINT RightToeBase
					{
						OFFSET -0.164730 -0.452590 2.363150
						CHANNELS 3 Zrotation Yrotation Xrotation
						End Site
						{
							OFFSET 0.000000 0.000000 0.000000
						}
					}
				}
			}
		}
	}
	JOINT LowerBack
	{
		OFFSET 0.000000 0.000000 0.000000
		CHANNELS 3 Zrotation Yrotation Xrotation
		JOINT Spine
		{
			OFFSET 0.028270 2.035590 -0.193380
			CHANNELS 3 Zrotation Yrotation Xrotation
			JOINT Spine1
			{
				OFFSET 0.056720 2.048850 -0.042750
				CHANNELS 3 Zrotation Yrotation Xrotation
				JOINT Neck
				{
					OFFSET 0.000000 0.000000 0.000000
					CHANNELS 3 Zrotation Yrotation Xrotation
					JOINT Neck1
					{
						OFFSET -0.054170 1.746240 0.172020
						CHANNELS 3 Zrotation Yrotation Xrotation
						JOINT Head
						{
							OFFSET 0.104070 1.761360 -0.123970
							CHANNELS 3 Zrotation Yrotation Xrotation
							End Site
							{
								OFFSET 0.000000 0.000000 0.000000
							}
						}
					}
				}
				JOINT LeftShoulder
				{
					OFFSET 0.000000 0.000000 0.000000
					CHANNELS 3 Zrotation Yrotation Xrotation
					JOINT LeftArm
					{
						OFFSET 3.362410 1.200890 -0.311210
						CHANNELS 3 Zrotation Yrotation Xrotation
						JOINT LeftForeArm
						{
							OFFSET 4.983000 -0.000000 -0.000000
							CHANNELS 3 Zrotation Yrotation Xrotation
							JOINT LeftHand
							{
								OFFSET 3.483560 -0.000000 -0.000000
								CHANNELS 3 Zrotation Yrotation Xrotation
								JOINT LeftFingerBase
								{
									OFFSET 0.000000 0.000000 0.000000
									CHANNELS 3 Zrotation Yrotation Xrotation
									JOINT LeftHandIndex1
									{
										OFFSET 0.715260 -0.000000 -0.000000
										CHANNELS 3 Zrotation Yrotation Xrotation
										End Site
										{
											OFFSET 0.000000 0.000000 0.000000
										}
									}
								}
								JOINT LThumb
								{
									OFFSET 0.000000 0.000000 0.000000
									CHANNELS 3 Zrotation Yrotation Xrotation
									End Site
									{
										OFFSET 0.000000 0.000000 0.000000
									}
								}
							}
						}
					}
				}
				JOINT RightShoulder
				{
					OFFSET 0.000000 0.000000 0.000000
					CHANNELS 3 Zrotation Yrotation Xrotation
					JOINT RightArm
					{
						OFFSET -3.136600 1.374050 -0.404650
						CHANNELS 3 Zrotation Yrotation Xrotation
						JOINT RightForeArm
						{
							OFFSET -5.241900 -0.000000 -0.000000
							CHANNELS 3 Zrotation Yrotation Xrotation
							JOINT RightHand
							{
								OFFSET -3.444170 -0.000000 -0.000000
								CHANNELS 3 Zrotation Yrotation Xrotation
								JOINT RightFingerBase
								{
									OFFSET 0.000000 0.000000 0.000000
									CHANNELS 3 Zrotation Yrotation Xrotation
									JOINT RightHandIndex1
									{
										OFFSET -0.622530 -0.000000 -0.000000
										CHANNELS 3 Zrotation Yrotation Xrotation
										End Site
										{
											OFFSET 0.000000 0.000000 0.000000
										}
									}
								}
								JOINT RThumb
								{
									OFFSET 0.000000 0.000000 0.000000
									CHANNELS 3 Zrotation Yrotation Xrotation
									End Site
									{
										OFFSET 0.000000 0.000000 0.000000
									}
								}
							}
						}
					}
				}
			}
		}
	}
}
MOTION
Frames: 4
Frame Time: 0.008333
4.939012 17.971737 -29.209556 -4.090979 -2.099648 0.437001 0.165856 5.031697 3.818492 -13.243137 -9.231736 -23.349108 8.821192 15.559707 56.324051 -0.348658 2.373621 12.953737 0.000000 0.000000 0.000000 1.808114 -4.710555 4.121287 26.045680 14.847713 -14.400583 -2.094869 -8.023311 29.960844 0.890569 -3.991300 2.576614 -0.486900 -4.474400 12.415300 2.318855 -0.314032 6.898004 4.894955 0.032882 5.357636 0.798188 -0.090979 -7.910107 -4.276019 -4.762588 -21.363602 2.553515 -5.043740 18.710191 -0.640900 -2.085300 10.138900 -7.297606 2.851997 -1.234733 -78.641229 -2.445193 33.212108 13.141116 -22.221337 -2.708089 -0.491959 -0.718879 -7.422473 30.596819 16.164234 9.929600 -7.125000 0.000000 0.000000 3.299800 49.406400 0.358900 11.113196 -1.737672 -2.332890 74.368078 2.171987 13.486741 -10.194767 21.772039 -2.509388 0.775611 0.068334 2.801448 -13.238422 11.251029 -2.751800 7.125000 0.000000 0.000000 9.203700 -18.623100 5.858600 
4.944209 17.958246 -29.042567 -3.979015 -2.411067 0.418536 0.153406 4.963488 3.737805 -13.237850 -9.181629 -24.152007 8.508772 15.458190 55.361990 -0.345001 2.420724 13.058642 0.000000 0.000000 0.000000 1.795774 -4.721279 4.181603 26.025418 14.717369 -13.948145 -2.149266 -8.080835 30.240959 0.744565 -3.561433 1.871399 -0.480700 -4.446100 12.335200 2.258994 -0.252020 6.681208 4.876917 0.098458 5.262549 0.764529 -0.048436 -7.856479 -4.604780 -4.526624 -20.256703 2.832680 -4.775822 18.204604 -0.458800 -1.971200 9.802500 -7.297795 2.826579 -1.239890 -78.827357 -1.784756 32.913398 13.161550 -22.264856 -2.674308 -0.386375 -1.002411 -7.576228 28.795141 28.875943 15.587200 -7.125000 0.000000 0.000000 -2.156800 63.254000 -0.955600 11.136276 -1.746254 -2.364530 74.045831 1.961329 14.636324 -10.485059 22.242466 -2.635962 0.759685 0.107427 2.197756 -13.121564 10.740631 -2.594200 7.125000 0.000000 0.000000 9.309900 -19.177300 5.811900 
4.948506 17.953149 -28.877777 -4.138877 -2.725693 0.428640 0.148168 4.886402 3.642888 -12.936340 -9.097598 -24.885604 8.133379 15.323729 54.181156 -0.339544 2.492982 13.215650 0.000000 0.000000 0.000000 1.799379 -4.733294 4.234255 26.300449 14.532518 -13.456777 -2.176550 -8.088299 30.359002 0.671092 -3.349912 1.358399 -0.470200 -4.397800 12.198700 2.279923 -0.205434 6.941487 5.135107 0.188120 4.665960 0.829166 -0.010168 -8.422626 -5.261714 -4.412705 -18.199502 3.053059 -4.681377 17.720161 -0.264900 -1.967600 9.314000 -7.276972 2.799711 -1.225041 -79.184085 -0.277327 32.631917 13.234180 -22.323694 -2.677595 -0.261899 -1.131321 -8.092325 25.374922 34.957885 15.865200 -7.125000 0.000000 0.000000 -11.191000 68.590700 -6.363600 11.164274 -1.790209 -2.432124 73.523604 1.018485 16.172845 -10.807984 22.782707 -2.730640 0.851575 0.001775 1.848458 -14.434831 13.678767 -3.675900 7.125000 0.000000 0.000000 8.296100 -16.001500 5.749100 
4.952004 17.948852 -28.712987 -4.260716 -2.978760 0.467757 0.138677 4.802387 3.539461 -12.673176 -9.114489 -25.617253 7.745903 15.169948 52.957524 -0.334053 2.565861 13.370041 0.000000 0.000000 0.000000 1.799231 -4.745119 4.277215 26.520092 14.444412 -12.982695 -2.218009 -8.114036 30.527913 0.630183 -3.243892 0.866471 -0.399200 -4.056400 11.235300 2.333943 -0.138340 7.220783 5.282703 0.317702 3.903761 0.799075 0.037857 -9.095124 -5.808896 -4.218151 -15.757405 3.275006 -4.584714 17.166476 -0.085600 -1.957100 8.741700 -7.240039 2.759802 -1.209387 -79.399485 1.473217 32.412390 13.345010 -22.495230 -2.716315 -0.247366 -1.187976 -8.409590 25.573475 37.084067 16.777900 -7.125000 0.000000 0.000000 -13.388500 70.763000 -8.277500 11.188115 -1.854822 -2.510754 73.142334 -0.182652 17.704290 -11.173130 23.361156 -2.791613 1.002164 -0.216926 1.904584 -16.926696 19.143100 -6.084200 7.125000 0.000000 0.000000 6.683300 -9.955000 5.465600 
